<svg xmlns="http://www.w3.org/2000/svg" width="1600" height="900" viewBox="0 0 1600 900">
<defs>
<marker id="arrow" markerWidth="10" markerHeight="10" refX="8" refY="3" orient="auto" markerUnits="strokeWidth">
<path d="M0,0 L0,6 L9,3 z" fill="#6B7280"/>
</marker>
</defs>
<rect width="1600" height="900" fill="#FFFFFF"/>
<text x="70" y="72" font-family="Microsoft YaHei, Noto Sans CJK SC, Arial, sans-serif" font-size="38" font-weight="700" fill="#14213D">CrashFixer 与本项目流程对照</text>
<text x="70" y="112" font-family="Microsoft YaHei, Noto Sans CJK SC, Arial, sans-serif" font-size="20" fill="#5B6475">保留根因推理与反思，缩小系统范围，并加入 Semantic Guard 与可复现工程核验</text>
<line x1="70" y1="140" x2="1530" y2="140" stroke="#D9DEE7" stroke-width="2"/>
<rect x="70" y="165" width="700" height="56" rx="8" fill="#14213D"/>
<text x="420" y="202" text-anchor="middle" font-family="Microsoft YaHei, Noto Sans CJK SC, Arial, sans-serif" font-size="25" font-weight="700" fill="#FFFFFF">CrashFixer 参考流程</text>
<rect x="830" y="165" width="700" height="56" rx="8" fill="#2563A6"/>
<text x="1180" y="202" text-anchor="middle" font-family="Microsoft YaHei, Noto Sans CJK SC, Arial, sans-serif" font-size="25" font-weight="700" fill="#FFFFFF">本科课程项目实现</text>
<line x1="800" y1="165" x2="800" y2="820" stroke="#D9DEE7" stroke-width="2" stroke-dasharray="8 8"/>
<rect x="105" y="245" width="630" height="78" rx="8" fill="#EAF2FA" stroke="#2563A6" stroke-width="2"/>
<text x="125" y="277" font-family="Microsoft YaHei, Noto Sans CJK SC, Arial, sans-serif" font-size="22" font-weight="700" fill="#14213D">输入证据</text>
<text x="125" y="305" font-family="Microsoft YaHei, Noto Sans CJK SC, Arial, sans-serif" font-size="16" fill="#5B6475">crash report + source code + execution trace</text>
<rect x="105" y="350" width="630" height="78" rx="8" fill="#EAF2FA" stroke="#2563A6" stroke-width="2"/>
<text x="125" y="382" font-family="Microsoft YaHei, Noto Sans CJK SC, Arial, sans-serif" font-size="22" font-weight="700" fill="#14213D">Hypothesis Generation</text>
<text x="125" y="410" font-family="Microsoft YaHei, Noto Sans CJK SC, Arial, sans-serif" font-size="16" fill="#5B6475">生成多个根因假设与修复方向</text>
<rect x="105" y="455" width="630" height="78" rx="8" fill="#EAF2FA" stroke="#2563A6" stroke-width="2"/>
<text x="125" y="487" font-family="Microsoft YaHei, Noto Sans CJK SC, Arial, sans-serif" font-size="22" font-weight="700" fill="#14213D">Self-Reflection</text>
<text x="125" y="515" font-family="Microsoft YaHei, Noto Sans CJK SC, Arial, sans-serif" font-size="16" fill="#5B6475">比较证据、筛选最可信假设</text>
<rect x="105" y="560" width="630" height="78" rx="8" fill="#EAF2FA" stroke="#2563A6" stroke-width="2"/>
<text x="125" y="592" font-family="Microsoft YaHei, Noto Sans CJK SC, Arial, sans-serif" font-size="22" font-weight="700" fill="#14213D">Patch Generation</text>
<text x="125" y="620" font-family="Microsoft YaHei, Noto Sans CJK SC, Arial, sans-serif" font-size="16" fill="#5B6475">根据选定假设生成候选补丁</text>
<rect x="105" y="665" width="630" height="78" rx="8" fill="#E7F5F2" stroke="#16877A" stroke-width="2"/>
<text x="125" y="697" font-family="Microsoft YaHei, Noto Sans CJK SC, Arial, sans-serif" font-size="22" font-weight="700" fill="#14213D">完整动态验证</text>
<text x="125" y="725" font-family="Microsoft YaHei, Noto Sans CJK SC, Arial, sans-serif" font-size="16" fill="#5B6475">kernel build + VM + reproducer</text>
<rect x="865" y="245" width="630" height="78" rx="8" fill="#EAF2FA" stroke="#2563A6" stroke-width="2"/>
<text x="885" y="277" font-family="Microsoft YaHei, Noto Sans CJK SC, Arial, sans-serif" font-size="22" font-weight="700" fill="#14213D">真实 kBenchSyz 输入</text>
<text x="885" y="305" font-family="Microsoft YaHei, Noto Sans CJK SC, Arial, sans-serif" font-size="16" fill="#5B6475">crash report + source excerpt + 可选 trace</text>
<rect x="865" y="350" width="630" height="78" rx="8" fill="#EAF2FA" stroke="#2563A6" stroke-width="2"/>
<text x="885" y="382" font-family="Microsoft YaHei, Noto Sans CJK SC, Arial, sans-serif" font-size="22" font-weight="700" fill="#14213D">Hypothesis + Reflection</text>
<text x="885" y="410" font-family="Microsoft YaHei, Noto Sans CJK SC, Arial, sans-serif" font-size="16" fill="#5B6475">三阶段 Prompt 流程，可保存中间结果</text>
<rect x="865" y="455" width="630" height="78" rx="8" fill="#FFF3DD" stroke="#D97706" stroke-width="2"/>
<text x="885" y="487" font-family="Microsoft YaHei, Noto Sans CJK SC, Arial, sans-serif" font-size="22" font-weight="700" fill="#14213D">Replace-based Patch + Semantic Guard</text>
<text x="885" y="515" font-family="Microsoft YaHei, Noto Sans CJK SC, Arial, sans-serif" font-size="16" fill="#5B6475">约束删除、绕过、无依据提前 return</text>
<rect x="865" y="560" width="630" height="78" rx="8" fill="#E7F5F2" stroke="#16877A" stroke-width="2"/>
<text x="885" y="592" font-family="Microsoft YaHei, Noto Sans CJK SC, Arial, sans-serif" font-size="22" font-weight="700" fill="#14213D">分层工程核验</text>
<text x="885" y="620" font-family="Microsoft YaHei, Noto Sans CJK SC, Arial, sans-serif" font-size="16" fill="#5B6475">轻量检查 → 真实源码 → 三路局部编译</text>
<rect x="865" y="665" width="630" height="78" rx="8" fill="#F7F8FA" stroke="#5B6475" stroke-width="2"/>
<text x="885" y="697" font-family="Microsoft YaHei, Noto Sans CJK SC, Arial, sans-serif" font-size="22" font-weight="700" fill="#14213D">人工语义评价</text>
<text x="885" y="725" font-family="Microsoft YaHei, Noto Sans CJK SC, Arial, sans-serif" font-size="16" fill="#5B6475">plausible / helpful / incorrect</text>
<line x1="420" y1="323" x2="420" y2="345" stroke="#6B7280" stroke-width="2.5" marker-end="url(#arrow)"/>
<line x1="1180" y1="323" x2="1180" y2="345" stroke="#6B7280" stroke-width="2.5" marker-end="url(#arrow)"/>
<line x1="420" y1="428" x2="420" y2="450" stroke="#6B7280" stroke-width="2.5" marker-end="url(#arrow)"/>
<line x1="1180" y1="428" x2="1180" y2="450" stroke="#6B7280" stroke-width="2.5" marker-end="url(#arrow)"/>
<line x1="420" y1="533" x2="420" y2="555" stroke="#6B7280" stroke-width="2.5" marker-end="url(#arrow)"/>
<line x1="1180" y1="533" x2="1180" y2="555" stroke="#6B7280" stroke-width="2.5" marker-end="url(#arrow)"/>
<line x1="420" y1="638" x2="420" y2="660" stroke="#6B7280" stroke-width="2.5" marker-end="url(#arrow)"/>
<line x1="1180" y1="638" x2="1180" y2="660" stroke="#6B7280" stroke-width="2.5" marker-end="url(#arrow)"/>
<rect x="110" y="775" width="160" height="32" rx="8" fill="#FCECEC"/>
<text x="190.0" y="797" text-anchor="middle" font-family="Microsoft YaHei, Noto Sans CJK SC, Arial, sans-serif" font-size="15" font-weight="700" fill="#B83A3A">论文完整系统</text>
<rect x="875" y="775" width="150" height="32" rx="8" fill="#FFF3DD"/>
<text x="950.0" y="797" text-anchor="middle" font-family="Microsoft YaHei, Noto Sans CJK SC, Arial, sans-serif" font-size="15" font-weight="700" fill="#D97706">轻量创新点</text>
<rect x="1040" y="775" width="190" height="32" rx="8" fill="#E7F5F2"/>
<text x="1135.0" y="797" text-anchor="middle" font-family="Microsoft YaHei, Noto Sans CJK SC, Arial, sans-serif" font-size="15" font-weight="700" fill="#16877A">真实源码核验</text>
<rect x="1245" y="775" width="245" height="32" rx="8" fill="#EAF2FA"/>
<text x="1367.5" y="797" text-anchor="middle" font-family="Microsoft YaHei, Noto Sans CJK SC, Arial, sans-serif" font-size="15" font-weight="700" fill="#2563A6">局部编译对照验证</text>
<text x="800" y="855" text-anchor="middle" font-family="Microsoft YaHei, Noto Sans CJK SC, Arial, sans-serif" font-size="17" fill="#5B6475">范围差异：本项目不部署大规模分布式修复平台，也不把人工评价称为真实修复成功率</text>
</svg>